<svg xmlns="http://www.w3.org/2000/svg" xmlns:xlink="http://www.w3.org/1999/xlink" width="64" zoomAndPan="magnify" viewBox="0 0 48 48" height="64" preserveAspectRatio="xMidYMid meet" version="1.0"><defs><clipPath id="068f4d922d"><path d="M 0.488281 0 L 47.507812 0 L 47.507812 47.019531 L 0.488281 47.019531 Z M 0.488281 0 " clip-rule="nonzero"/></clipPath><clipPath id="b8b5578241"><path d="M 12.210938 12.0625 L 35.722656 12.0625 L 35.722656 34.835938 L 12.210938 34.835938 Z M 12.210938 12.0625 " clip-rule="nonzero"/></clipPath><clipPath id="9da9c88a7e"><path d="M 1.316406 42.339844 L 15.421875 42.339844 L 15.421875 47.019531 L 1.316406 47.019531 Z M 1.316406 42.339844 " clip-rule="nonzero"/></clipPath></defs><g clip-path="url(#068f4d922d)"><path fill="#ffffff" d="M 0.488281 0 L 47.511719 0 L 47.511719 47.019531 L 0.488281 47.019531 Z M 0.488281 0 " fill-opacity="1" fill-rule="nonzero"/><path fill="#000000" d="M 0.488281 0 L 47.511719 0 L 47.511719 47.019531 L 0.488281 47.019531 Z M 0.488281 0 " fill-opacity="1" fill-rule="nonzero"/></g><g clip-path="url(#b8b5578241)"><path fill="#ffffff" d="M 21.417969 19.367188 L 22.148438 16.640625 L 34.539062 16.640625 L 35.78125 12.066406 L 18.359375 12.066406 L 16.398438 19.367188 Z M 12.210938 34.945312 L 17.246094 34.945312 L 19.632812 26.089844 L 30.546875 26.089844 L 31.757812 21.511719 L 15.820312 21.511719 Z M 12.210938 34.945312 " fill-opacity="1" fill-rule="nonzero"/></g><g clip-path="url(#9da9c88a7e)"><path fill="#000000" d="M 1.316406 42.339844 L 15.421875 42.339844 L 15.421875 56.445312 L 1.316406 56.445312 Z M 1.316406 42.339844 " fill-opacity="1" fill-rule="nonzero"/></g></svg>